<?xml version="1.0" encoding="utf-8"?>
<!-- Generator: Adobe Illustrator 28.0.0, SVG Export Plug-In . SVG Version: 6.00 Build 0)  -->
<svg version="1.1" xmlns="http://www.w3.org/2000/svg" xmlns:xlink="http://www.w3.org/1999/xlink" x="0px" y="0px"
	 viewBox="0 0 500 500" style="enable-background:new 0 0 500 500;" xml:space="preserve">
<style type="text/css">
	.st0{fill:#EBEBEB;}
	.st1{fill:#E6E6E6;}
	.st2{fill:#F5F5F5;}
	.st3{fill:#FFFFFF;}
	.st4{opacity:0.4;}
	.st5{fill:#F0F0F0;}
	.st6{display:none;}
	.st7{display:inline;}
	.st8{fill:#407BFF;}
	.st9{opacity:0.9;fill:#FFFFFF;}
	.st10{fill:#ACD6AA;}
	.st11{opacity:0.3;}
	.st12{opacity:0.2;}
	.st13{fill:#263238;}
	.st14{opacity:0.6;}
	.st15{opacity:0.7;fill:#FFFFFF;}
	.st16{opacity:0.1;fill:#407BFF;}
	.st17{opacity:0.4;fill:#FFFFFF;}
	.st18{fill:#B65B52;}
	.st19{fill:#B55B52;}
	.st20{fill:#87FFAE;}
	.st21{opacity:0.5;fill:#FFFFFF;}
	.st22{fill:#FAFAFA;}
	.st23{opacity:0.6;fill:#87FFAE;}
	.st24{fill:#A02724;}
	.st25{opacity:0.3;fill:#FAFAFA;}
	.st26{fill:#85FFA5;}
	.st27{fill:#8DC78A;}
	.st28{fill:#8BC68A;}
	.st29{opacity:0.5;}
	.st30{fill:#F6FBF8;}
</style>
<g id="Background_Complete">
	<g>
		<rect y="382.4" class="st0" width="500" height="0.25"/>
		<rect x="416.78" y="398.49" class="st0" width="33.12" height="0.25"/>
		<rect x="322.53" y="401.21" class="st0" width="8.69" height="0.25"/>
		<rect x="396.59" y="389.21" class="st0" width="19.19" height="0.25"/>
		<rect x="52.46" y="390.89" class="st0" width="43.19" height="0.25"/>
		<rect x="104.56" y="390.89" class="st0" width="6.33" height="0.25"/>
		<rect x="131.47" y="395.11" class="st0" width="93.68" height="0.25"/>
		<path class="st0" d="M237.01,337.8H43.92c-3.15,0-5.71-2.56-5.71-5.71V60.66c0-3.15,2.56-5.71,5.71-5.71h193.1
			c3.15,0,5.71,2.56,5.71,5.71v271.43C242.72,335.24,240.16,337.8,237.01,337.8z M43.92,55.2c-3.01,0-5.46,2.45-5.46,5.46v271.43
			c0,3.01,2.45,5.46,5.46,5.46h193.1c3.01,0,5.46-2.45,5.46-5.46V60.66c0-3.01-2.45-5.46-5.46-5.46H43.92z"/>
		<path class="st0" d="M453.31,337.8h-193.1c-3.15,0-5.71-2.56-5.71-5.71V60.66c0-3.15,2.56-5.71,5.71-5.71h193.1
			c3.15,0,5.71,2.56,5.71,5.71v271.43C459.02,335.24,456.46,337.8,453.31,337.8z M260.21,55.2c-3.01,0-5.46,2.45-5.46,5.46v271.43
			c0,3.01,2.45,5.46,5.46,5.46h193.1c3.01,0,5.46-2.45,5.46-5.46V60.66c0-3.01-2.45-5.46-5.46-5.46H260.21z"/>
	</g>
	<g>
		<g>
			<g>
				<g>
					<g>
						
							<rect x="179.13" y="88.61" transform="matrix(-1 -1.224647e-16 1.224647e-16 -1 589.9572 331.2953)" class="st1" width="231.69" height="154.07"/>
						
							<rect x="175.55" y="88.61" transform="matrix(-1 -1.224647e-16 1.224647e-16 -1 582.7853 331.2953)" class="st2" width="231.69" height="154.07"/>
						
							<rect x="221.59" y="56.24" transform="matrix(-1.836970e-16 1 -1 -1.836970e-16 457.0404 -125.745)" class="st3" width="139.61" height="218.82"/>
						
							<rect x="113.54" y="164.29" transform="matrix(-1.836970e-16 1 -1 -1.836970e-16 348.9854 -17.69)" class="st1" width="139.61" height="2.71"/>
						
							<rect x="178.21" y="192.06" transform="matrix(-1 -1.224647e-16 1.224647e-16 -1 582.7853 393.8234)" class="st2" width="226.37" height="9.71"/>
					</g>
				</g>
			</g>
			<g class="st4">
				<rect x="168.36" y="81.01" class="st1" width="21.87" height="130.34"/>
				
					<rect x="190.24" y="81.01" transform="matrix(-1 -1.224647e-16 1.224647e-16 -1 391.3163 281.8858)" class="st2" width="10.84" height="119.87"/>
				<rect x="201.08" y="81.01" class="st1" width="21.87" height="130.34"/>
				
					<rect x="222.95" y="81.01" transform="matrix(-1 -1.224647e-16 1.224647e-16 -1 456.7533 281.8858)" class="st2" width="10.84" height="119.87"/>
				<rect x="233.8" y="81.01" class="st1" width="21.87" height="130.34"/>
				
					<rect x="255.67" y="81.01" transform="matrix(-1 -1.224647e-16 1.224647e-16 -1 522.1902 281.8858)" class="st2" width="10.84" height="119.87"/>
				<rect x="266.52" y="81.01" class="st1" width="21.87" height="130.34"/>
				
					<rect x="288.39" y="81.01" transform="matrix(-1 -1.224647e-16 1.224647e-16 -1 587.6271 281.8858)" class="st2" width="10.84" height="119.87"/>
				<rect x="299.24" y="81.01" class="st1" width="21.87" height="130.34"/>
				
					<rect x="321.11" y="81.01" transform="matrix(-1 -1.224647e-16 1.224647e-16 -1 653.0641 281.8858)" class="st2" width="10.84" height="119.87"/>
				<rect x="331.95" y="81.01" class="st1" width="21.87" height="130.34"/>
				
					<rect x="353.83" y="81.01" transform="matrix(-1 -1.224647e-16 1.224647e-16 -1 718.5011 281.8858)" class="st2" width="10.84" height="119.87"/>
				<rect x="364.67" y="81.01" class="st1" width="21.87" height="130.34"/>
				
					<rect x="386.55" y="81.01" transform="matrix(-1 -1.224647e-16 1.224647e-16 -1 783.9381 281.8858)" class="st2" width="10.84" height="119.87"/>
				<rect x="397.39" y="81.01" class="st1" width="21.87" height="130.34"/>
			</g>
		</g>
		<g>
			
				<rect x="82.79" y="277" transform="matrix(-1 -1.224647e-16 1.224647e-16 -1 216.8743 659.3984)" class="st0" width="51.29" height="105.4"/>
			<polygon class="st2" points="92.53,382.4 82.79,382.4 82.79,360.93 102.75,360.93 			"/>
			
				<rect x="375.43" y="277" transform="matrix(-1 -1.224647e-16 1.224647e-16 -1 802.1453 659.3984)" class="st0" width="51.29" height="105.4"/>
			
				<rect x="82.79" y="277" transform="matrix(-1 -1.224647e-16 1.224647e-16 -1 466.7233 646.2273)" class="st2" width="301.14" height="92.23"/>
			<g>
				<path class="st1" d="M373.92,343.21h-89.27c-0.45,0-0.82-0.37-0.82-0.82v-58.36c0-0.45,0.37-0.82,0.82-0.82h16.49
					c0.18,0,0.35,0.06,0.49,0.16c2.37,1.75,5.07,3.14,8.05,4.13c3.41,1.14,7.04,1.72,10.78,1.72h17.66c7.05,0,13.74-2.08,18.83-5.85
					c0.14-0.1,0.31-0.16,0.49-0.16h16.48c0.45,0,0.82,0.37,0.82,0.82v58.36C374.74,342.84,374.37,343.21,373.92,343.21z
					 M285.47,341.57h87.63v-56.72h-15.4c-5.34,3.88-12.28,6.01-19.59,6.01h-17.66c-3.92,0-7.72-0.61-11.3-1.8
					c-3.05-1.01-5.83-2.43-8.29-4.21h-15.4V341.57z"/>
			</g>
			<g>
				<path class="st1" d="M277.99,343.21h-89.27c-0.45,0-0.82-0.37-0.82-0.82v-58.36c0-0.45,0.37-0.82,0.82-0.82h15.59
					c0.18,0,0.35,0.06,0.49,0.16c2.38,1.76,5.09,3.15,8.05,4.13c3.41,1.14,7.04,1.72,10.78,1.72h17.66c7.04,0,13.72-2.08,18.81-5.85
					c0.14-0.1,0.31-0.16,0.49-0.16h17.4c0.45,0,0.82,0.37,0.82,0.82v58.36C278.81,342.84,278.45,343.21,277.99,343.21z
					 M189.54,341.57h87.63v-56.72h-16.31c-5.34,3.88-12.28,6.01-19.57,6.01h-17.66c-3.92,0-7.72-0.61-11.3-1.8
					c-3.03-1-5.82-2.42-8.29-4.21h-14.5V341.57z"/>
			</g>
			<g>
				<path class="st1" d="M182.07,343.21H92.8c-0.45,0-0.82-0.37-0.82-0.82v-58.36c0-0.45,0.37-0.82,0.82-0.82h15.59
					c0.18,0,0.35,0.06,0.49,0.16c2.37,1.75,5.08,3.14,8.05,4.13c3.41,1.14,7.04,1.72,10.78,1.72h17.66c7.05,0,13.74-2.08,18.83-5.85
					c0.14-0.1,0.31-0.16,0.49-0.16h17.38c0.45,0,0.82,0.37,0.82,0.82v58.36C182.89,342.84,182.52,343.21,182.07,343.21z
					 M93.62,341.57h87.63v-56.72h-16.29c-5.34,3.88-12.28,6.01-19.59,6.01h-17.66c-3.92,0-7.72-0.61-11.3-1.8
					c-3.05-1.01-5.83-2.43-8.29-4.21h-14.5V341.57z"/>
			</g>
			<polygon class="st2" points="374.19,382.4 383.93,382.4 383.93,360.93 363.98,360.93 			"/>
		</g>
		<g>
			<path class="st1" d="M143.94,259.34l-8.09,0c0.05-5.6-0.03-19.82-0.57-52.39c-0.98-59.04-2.87-62.64-2.87-62.64l9.61,29.14
				c2.26,6.86,3.62,13.99,3.94,21.2C146.99,217.37,143.02,235.51,143.94,259.34z"/>
			<path class="st1" d="M150.09,164.66c10.79-16.33,32.33-24.85,54.35-32.88c8.64-3.15-15.62,35.92-33.26,53.64
				c-13.7,13.76-26.95,13.45-30.93,27.05C139.49,196.69,140.79,178.73,150.09,164.66z"/>
			<path class="st1" d="M137.73,154.18c-8.46-19.1-29.83-43.87-53.85-61.31c-9.43-6.85,13.84,51.96,30.25,76.05
				c12.78,18.76,24.7,30.18,26.56,43.56C148.75,195.74,146.18,173.27,137.73,154.18z"/>
			<g>
				<path class="st5" d="M138.53,277L138.53,277c9.49,0,17.34-7.41,17.88-16.89l1.58-16.19h-38.93l1.58,16.19
					C121.19,269.59,129.03,277,138.53,277z"/>
				<polygon class="st5" points="116.54,244.01 160.52,244.01 161.78,238.26 115.28,238.26 				"/>
				<polygon class="st5" points="118.71,253.87 158.35,253.87 159.48,248.12 117.57,248.12 				"/>
			</g>
		</g>
	</g>
</g>
<g id="Background_Simple" class="st6">
	<g class="st7">
		<path class="st8" d="M317.02,115.53c-32.87-19.07-86.88-21.38-117.56,1.07c-33.88,24.79-28.68,71.83-63.34,94.18
			c-35.25,22.72-77.56,13.06-72.9,71.57c3.59,45.1,42.03,57.15,78.99,69.14c66.35,21.53,194.81,45.42,241.55-26.17
			C437,243.78,390.7,158.29,317.02,115.53z"/>
		<path class="st9" d="M317.02,115.53c-32.87-19.07-86.88-21.38-117.56,1.07c-33.88,24.79-28.68,71.83-63.34,94.18
			c-35.25,22.72-77.56,13.06-72.9,71.57c3.59,45.1,42.03,57.15,78.99,69.14c66.35,21.53,194.81,45.42,241.55-26.17
			C437,243.78,390.7,158.29,317.02,115.53z"/>
	</g>
</g>
<g id="Shadow_1_">
	<ellipse id="_x3C_Path_x3E__93_" class="st2" cx="250" cy="416.24" rx="193.89" ry="11.32"/>
</g>
<g id="Table">
	<g>
		<g>
			<rect x="94.71" y="318.33" class="st10" width="310.57" height="35.16"/>
			<rect x="338.67" y="318.33" class="st11" width="66.62" height="35.16"/>
		</g>
		<g>
			<rect x="94.71" y="353.49" class="st10" width="34.29" height="62.75"/>
			<polygon class="st11" points="94.71,353.49 94.71,357 119,364.33 119,416.24 129,416.24 129,353.49 			"/>
		</g>
		<g>
			<g>
				<rect x="371" y="353.49" class="st10" width="34.29" height="62.75"/>
				<rect x="371" y="353.49" class="st12" width="34.29" height="62.75"/>
			</g>
			<polygon class="st11" points="371,353.49 371,357 395.29,364.33 395.29,416.24 405.29,416.24 405.29,353.49 			"/>
		</g>
		<g>
			<rect x="304.38" y="353.49" class="st10" width="34.29" height="62.75"/>
			<polygon class="st11" points="304.38,353.49 304.38,357 328.67,364.33 328.67,416.24 338.67,416.24 338.67,353.49 			"/>
		</g>
		<g>
			<g>
				<rect x="161.33" y="353.49" class="st10" width="34.29" height="62.75"/>
				<rect x="161.33" y="353.49" class="st12" width="34.29" height="62.75"/>
			</g>
			<polygon class="st11" points="161.33,353.49 161.33,357 185.62,364.33 185.62,416.24 195.62,416.24 195.62,353.49 			"/>
		</g>
	</g>
</g>
<g id="Character">
	<g>
		<g>
			<g>
				<g>
					<path class="st13" d="M362.48,311.42H172.6c-2.53,0-4.46-2.07-4.3-4.59l7.82-124.1c0.16-2.53,2.36-4.59,4.88-4.59h189.87
						c2.53,0,4.46,2.07,4.3,4.59l-7.82,124.1C367.2,309.35,365,311.42,362.48,311.42z"/>
					<path class="st14" d="M362.48,311.42H172.6c-2.53,0-4.46-2.07-4.3-4.59l7.82-124.1c0.16-2.53,2.36-4.59,4.88-4.59h189.87
						c2.53,0,4.46,2.07,4.3,4.59l-7.82,124.1C367.2,309.35,365,311.42,362.48,311.42z"/>
				</g>
				<g>
					<path class="st13" d="M361.06,311.42H171.19c-2.53,0-4.46-2.07-4.3-4.59l7.82-124.1c0.16-2.53,2.36-4.59,4.88-4.59h189.87
						c2.53,0,4.46,2.07,4.3,4.59l-7.82,124.1C365.78,309.35,363.59,311.42,361.06,311.42z"/>
				</g>
				<g>
					<g>
						<path class="st13" d="M360.82,312.98H134.89c-2.18,0-4.08,1.27-4.95,3.1c-0.5,1.05,0.27,2.26,1.45,2.26h232.94
							c1.18,0,1.95-1.21,1.45-2.26C364.9,314.25,363,312.98,360.82,312.98z"/>
					</g>
					<path class="st14" d="M360.82,312.98h-32.13c-2.18,0-4.08,1.27-4.95,3.1c-0.5,1.05,0.27,2.26,1.45,2.26h39.14
						c1.18,0,1.95-1.21,1.45-2.26C364.9,314.25,363,312.98,360.82,312.98z"/>
					<path class="st8" d="M340.9,316.9h-8.29c-0.4,0-0.73-0.33-0.73-0.73l0,0c0-0.4,0.33-0.73,0.73-0.73h8.29
						c0.4,0,0.73,0.33,0.73,0.73l0,0C341.62,316.57,341.3,316.9,340.9,316.9z"/>
					<path class="st15" d="M234.17,316.9h-8.29c-0.4,0-0.73-0.33-0.73-0.73l0,0c0-0.4,0.33-0.73,0.73-0.73h8.29
						c0.4,0,0.73,0.33,0.73,0.73l0,0C234.9,316.57,234.57,316.9,234.17,316.9z"/>
					<path class="st8" d="M349.48,316.9h-5.42c-0.33,0-0.6-0.27-0.6-0.6v-0.26c0-0.33,0.27-0.6,0.6-0.6h5.42
						c0.33,0,0.6,0.27,0.6,0.6v0.26C350.08,316.63,349.81,316.9,349.48,316.9z"/>
				</g>
				<path class="st3" d="M171.16,302.34l7.26-115.12c0.06-0.98,0.92-1.79,1.9-1.79h187.48c0.98,0,1.74,0.81,1.68,1.79l-7.26,115.12
					c-0.06,0.98-0.92,1.79-1.9,1.79H172.84C171.86,304.12,171.1,303.32,171.16,302.34z"/>
				<path class="st16" d="M277.82,181.88l-62.45,118.7H169.3c-0.99,0-1.74-0.8-1.68-1.79l7.26-115.12c0.06-0.98,0.92-1.79,1.9-1.79
					H277.82z"/>
				<polygon class="st16" points="332.51,181.88 270.06,300.58 255.5,300.58 317.95,181.88 				"/>
				<path class="st16" d="M365.94,183.67l-7.26,115.12c-0.06,0.99-0.92,1.79-1.9,1.79h-70.97l62.45-118.7h16
					C365.25,181.88,366,182.69,365.94,183.67z"/>
				<path class="st17" d="M275.63,181.98c-0.05,0.74-0.69,1.35-1.43,1.35c-0.74,0-1.31-0.6-1.26-1.35c0.05-0.74,0.69-1.35,1.43-1.35
					C275.11,180.63,275.67,181.24,275.63,181.98z"/>
			</g>
		</g>
		<g>
			<g>
				<path class="st13" d="M243.65,154.39c-5.47,6.26-8.63,25.44-4.57,34.89c4.05,9.44-42.95,18.89-4.17,34.22
					c38.78,15.33,69.78-2.44,58.56-18.33s1.21-42.35-11.78-49.03C269.94,150.11,254.61,141.84,243.65,154.39z"/>
				<path class="st18" d="M232.06,231.66c-2.05,7.04-4.23,14.03-6.49,21.01c-2.28,6.97-4.61,13.92-7.1,20.87l-0.95,2.61l-0.48,1.31
					l-0.15,0.4l-0.24,0.58c-0.15,0.38-0.38,0.8-0.58,1.19c-0.86,1.59-2.38,3.26-4.21,4.26c-1.83,1-3.71,1.34-5.25,1.38
					c-3.13,0.05-5.4-0.7-7.49-1.47c-2.06-0.82-3.89-1.77-5.63-2.78c-6.88-4.12-12.51-9.01-17.88-14.46l4.31-5.08
					c1.45,0.93,2.99,1.92,4.5,2.85c1.52,0.94,3.07,1.83,4.59,2.72c3.07,1.75,6.16,3.41,9.21,4.71c1.52,0.65,3.03,1.21,4.44,1.57
					c1.37,0.39,2.72,0.52,3.26,0.38c0.28-0.05,0.23-0.16-0.01-0.07c-0.24,0.07-0.48,0.35-0.49,0.32c-0.01-0.03,0,0-0.01-0.06
					c0-0.02,0-0.04,0.01-0.06l0.08-0.25l0.38-1.29l0.76-2.6l6.12-21c2.08-7,4.2-14,6.42-20.96L232.06,231.66z"/>
				<path class="st19" d="M179.62,261.3l-11.58-4.32l4.61,12.27c0,0,8.19,1.18,11.37-3.13l-2.59-3.47
					C180.98,262.04,180.35,261.57,179.62,261.3z"/>
				<polygon class="st19" points="157.75,260.57 162.17,270.64 172.65,269.26 168.04,256.98 				"/>
				<g>
					<path class="st20" d="M223.58,213.55c-5.31,1.35-9.03,23.22-9.03,23.22l14.64,9.96c0,0,14.04-22.06,9.95-27.9
						C234.88,212.74,231.33,211.58,223.58,213.55z"/>
					<path class="st21" d="M223.58,213.55c-5.31,1.35-9.03,23.22-9.03,23.22l14.64,9.96c0,0,14.04-22.06,9.95-27.9
						C234.88,212.74,231.33,211.58,223.58,213.55z"/>
				</g>
				<path class="st12" d="M223.1,221.5l11.38,2.63l1.09,11.12c-2.97,6.13-6.37,11.47-6.37,11.47l-8.88-6.03
					C220.69,235.58,221.65,224.96,223.1,221.5z"/>
				<g>
					<path class="st20" d="M223.58,213.55c0,0-6.14,2.16,6.16,77.82c20.78,0,42.25,0,52.36,0c-0.88-21.31-0.9-34.45,9.28-78.19
						c0,0-10.97-2.39-22.24-2.93c-8.81-0.42-16.03-0.71-23.78,0C235.16,211.18,223.58,213.55,223.58,213.55z"/>
					<path class="st21" d="M223.58,213.55c0,0-6.14,2.16,6.16,77.82c20.78,0,42.25,0,52.36,0c-0.88-21.31-0.9-34.45,9.28-78.19
						c0,0-10.97-2.39-22.24-2.93c-8.81-0.42-16.03-0.71-23.78,0C235.16,211.18,223.58,213.55,223.58,213.55z"/>
				</g>
				<path class="st12" d="M279.06,233.48l6.76,5.75c-1.44,7.65-2.41,14.02-3.03,19.69C281.53,253.25,278.31,237.83,279.06,233.48z"
					/>
				<path class="st19" d="M266.79,183.47c-1.5,7.65-3,21.67,2.36,26.77c0,0-4.97,11.46-18.25,11.46c-13.28,0-5.53-11.46-5.53-11.46
					c8.53-2.04,8.31-8.37,6.83-14.31L266.79,183.47z"/>
				<path class="st22" d="M267.45,207.39c-1.26,2.55-5.31,8.39-16.66,10.46c-0.31,0.06-0.64,0-0.9-0.18
					c-2.13-1.48-3.44-4.61-2.51-8.24c0.26-1-0.71-1.88-1.66-1.48c-1.13,0.47-2.07,1.05-2.5,1.33c-0.18,0.11-0.31,0.27-0.41,0.45
					c-0.82,1.56-4.18,9.2,5.95,13.91c0.16,0.07,0.33,0.12,0.51,0.12c5.95,0.12,16.49-1.05,23.12-13.02c0.24-0.44,0.2-0.99-0.11-1.38
					c-0.73-0.92-2.07-1.85-3.07-2.47C268.58,206.51,267.77,206.73,267.45,207.39z"/>
				<path class="st22" d="M270.23,238.87l-13.5-0.39c-0.6-0.02-1.05-0.52-1-1.11l0.13-1.66c0.05-0.59,0.57-1.07,1.17-1.05l13.5,0.39
					c0.6,0.02,1.05,0.52,1,1.11l-0.13,1.66C271.35,238.41,270.83,238.89,270.23,238.87z"/>
				<path class="st12" d="M260.84,188.56l-8.64,7.37c0.36,1.41,0.63,2.83,0.73,4.22c3.26-0.47,7.74-4.05,8.08-7.46
					C261.19,190.99,261.12,189.35,260.84,188.56z"/>
				<path class="st19" d="M276.87,169.02c-2.41,12.57-3.17,17.94-10.41,23.61c-10.89,8.54-25.79,2.82-27.18-10.21
					c-1.25-11.73,2.91-30.31,15.96-33.75C268.1,145.28,279.29,156.45,276.87,169.02z"/>
				<path class="st13" d="M269.72,159.7c-1.56,7.87-1.92,18.33,5.33,18.33s12.86-12.28,6.64-21.89
					C275.46,146.53,270.63,155.06,269.72,159.7z"/>
				<path class="st13" d="M282.18,160.67c0,8.56-10.78,4.33-15.56,0.63c-4.78-3.69-5.04-3.29-13.83-3.3
					c-8.79-0.02-10.61-0.61-13.22-4.83s-2.38-7,3.51-6.11c5.88,0.89,0.94-5.11,5.33-8.44c4.39-3.33,9.56-2.49,15.56,5.11
					C269.95,151.33,282.18,145.84,282.18,160.67z"/>
				<g>
					
						<ellipse transform="matrix(0.2813 -0.9596 0.9596 0.2813 25.6306 391.9174)" class="st3" cx="274.47" cy="178.85" rx="7.3" ry="4.73"/>
					<path class="st3" d="M258.96,189.86c-2.29,0-4.57-0.46-6.74-1.38c-0.19-0.08-0.28-0.3-0.2-0.49c0.08-0.19,0.3-0.28,0.49-0.2
						c4.1,1.74,8.63,1.76,12.74,0.07c4.02-1.66,7.13-4.76,8.76-8.75c3.03-8.59,6.06-19.32,2.52-25.97c-1.38-2.58-3.7-4.31-6.9-5.13
						c-0.2-0.05-0.32-0.26-0.27-0.46c0.05-0.2,0.25-0.32,0.46-0.27c3.41,0.88,5.89,2.73,7.37,5.5c3.68,6.91,0.61,17.84-2.48,26.58
						c-1.71,4.19-4.97,7.44-9.17,9.18C263.41,189.42,261.18,189.86,258.96,189.86z"/>
					<path class="st23" d="M278.65,180.22c-0.89,3.04-2.94,5.12-4.57,4.64c-1.63-0.48-2.23-3.33-1.34-6.37s2.94-5.12,4.57-4.64
						C278.95,174.32,279.54,177.18,278.65,180.22z"/>
					<path class="st3" d="M252.77,189.52l-3.91-0.75c-0.69-0.13-1.14-0.8-1.01-1.49l0.04-0.22c0.13-0.69,0.8-1.14,1.49-1.01
						l3.91,0.75c0.69,0.13,1.14,0.8,1.01,1.49l-0.04,0.22C254.13,189.2,253.46,189.65,252.77,189.52z"/>
				</g>
				<path class="st24" d="M248.17,170.05c0,0-2.32,4.21-4.53,6.11c1.2,1.45,3.59,1.17,3.59,1.17L248.17,170.05z"/>
				<path class="st13" d="M250.38,182.7c0.02,0.02,0.05,0.03,0.08,0.03c3.49,0.43,6.19-1.82,6.3-1.92c0.08-0.07,0.09-0.19,0.02-0.27
					c-0.07-0.08-0.19-0.09-0.27-0.02c-0.03,0.02-2.69,2.24-6,1.83c-0.11-0.01-0.2,0.06-0.22,0.17
					C250.29,182.58,250.32,182.66,250.38,182.7z"/>
				<path class="st13" d="M261.82,165.1c0.12,0.05,0.25,0.05,0.37-0.02c0.18-0.11,0.24-0.35,0.12-0.54
					c-1.74-2.76-4.44-2.84-4.55-2.84c-0.21,0-0.39,0.17-0.4,0.38c0,0.21,0.17,0.39,0.38,0.4c0.1,0,2.4,0.08,3.91,2.47
					C261.69,165.02,261.75,165.07,261.82,165.1z"/>
				<path class="st13" d="M256.09,170.22c-0.18,1.03-0.86,1.77-1.54,1.66c-0.67-0.11-1.08-1.04-0.9-2.08
					c0.18-1.03,0.86-1.77,1.54-1.66C255.86,168.26,256.27,169.19,256.09,170.22z"/>
				<path class="st13" d="M244.43,168.24c-0.18,1.03-0.86,1.77-1.54,1.66c-0.67-0.11-1.08-1.04-0.9-2.08
					c0.18-1.03,0.86-1.77,1.54-1.66C244.2,166.27,244.61,167.2,244.43,168.24z"/>
				<path class="st13" d="M243.82,166.27l-2.36-1.14C241.46,165.13,242.4,167.28,243.82,166.27z"/>
				<path class="st13" d="M255.48,168.25l-2.36-1.14C253.12,167.12,254.06,169.27,255.48,168.25z"/>
				<path class="st13" d="M240.47,161.27c0.13,0.06,0.28,0.05,0.4-0.05c2.24-1.72,4.43-0.99,4.52-0.96c0.2,0.07,0.42-0.04,0.5-0.24
					c0.07-0.2-0.04-0.43-0.24-0.5c-0.11-0.04-2.67-0.91-5.25,1.08c-0.17,0.13-0.2,0.38-0.07,0.55
					C240.37,161.21,240.42,161.25,240.47,161.27z"/>
				<g>
					<path class="st20" d="M227.75,304.12c0,0-0.14-7.17,1.98-12.76c4.57,0,52.36,0,52.36,0s4.71,7.6,5.93,12.76
						C282.14,304.12,227.75,304.12,227.75,304.12z"/>
					<path class="st20" d="M282.89,288.3l0.42,4.69c0.18,0.36-0.25,0.73-0.85,0.73h-52.97c-0.47,0-0.86-0.23-0.89-0.53l-0.47-4.69
						c-0.03-0.32,0.38-0.6,0.89-0.6h53.03C282.42,287.9,282.77,288.06,282.89,288.3z"/>
					<path class="st25" d="M282.89,288.3l0.42,4.69c0.18,0.36-0.25,0.73-0.85,0.73h-52.97c-0.47,0-0.86-0.23-0.89-0.53l-0.47-4.69
						c-0.03-0.32,0.38-0.6,0.89-0.6h53.03C282.42,287.9,282.77,288.06,282.89,288.3z"/>
				</g>
				<path class="st20" d="M275.76,294.22h1.42c0.28,0,0.5-0.15,0.48-0.32l-0.67-6.09c-0.02-0.18-0.27-0.32-0.55-0.32h-1.42
					c-0.28,0-0.5,0.15-0.48,0.32l0.67,6.09C275.23,294.08,275.48,294.22,275.76,294.22z"/>
				<path class="st20" d="M233.47,294.22h1.42c0.28,0,0.5-0.15,0.48-0.32l-0.67-6.09c-0.02-0.18-0.27-0.32-0.55-0.32h-1.42
					c-0.28,0-0.5,0.15-0.48,0.32l0.67,6.09C232.94,294.08,233.19,294.22,233.47,294.22z"/>
				<path class="st20" d="M254.62,294.22h1.42c0.28,0,0.5-0.15,0.48-0.32l-0.67-6.09c-0.02-0.18-0.27-0.32-0.55-0.32h-1.42
					c-0.28,0-0.5,0.15-0.48,0.32l0.67,6.09C254.09,294.08,254.33,294.22,254.62,294.22z"/>
			</g>
			<g>
				<path class="st18" d="M296.86,227.95c2.3,7.47,4.51,14.99,6.63,22.51l3.19,11.27l1.59,5.6l0.4,1.38l0.2,0.69l0.05,0.16
					l0.01,0.04c0.01,0.04,0,0.03,0,0.04l-0.16-0.25c-0.13-0.18-0.35-0.5-0.92-0.94c-0.54-0.44-1.63-0.92-2.68-0.95
					c-1.04-0.04-1.75,0.24-2.12,0.42c-0.72,0.39-0.65,0.48-0.59,0.41c0.09-0.06,0.27-0.25,0.47-0.49c0.4-0.48,0.85-1.15,1.29-1.86
					c0.89-1.43,1.75-3.06,2.58-4.72c1.69-3.32,3.23-6.84,4.78-10.37c1.53-3.54,3.02-7.13,4.49-10.73c1.52-3.58,2.94-7.24,4.41-10.82
					l6.39,1.91c-1.65,7.8-3.6,15.45-5.98,23.09c-1.18,3.83-2.49,7.62-4,11.46c-0.78,1.92-1.61,3.84-2.64,5.83
					c-0.52,1-1.09,2.02-1.84,3.12c-0.38,0.55-0.81,1.13-1.4,1.78c-0.62,0.63-1.3,1.39-2.9,2.21c-0.81,0.38-2.01,0.8-3.54,0.74
					c-1.54-0.04-3.1-0.73-4.03-1.47c-0.96-0.74-1.49-1.44-1.89-2.03c-0.4-0.6-0.63-1.08-0.85-1.55c-0.09-0.22-0.2-0.45-0.27-0.65
					l-0.18-0.49l-0.26-0.71l-0.52-1.41c-0.68-1.88-1.37-3.74-2-5.61c-1.28-3.74-2.56-7.47-3.76-11.22c-2.45-7.49-4.73-15-6.85-22.59
					L296.86,227.95z"/>
				<g>
					<path class="st26" d="M292.38,213.18c5.25,1.6,13.28,22.19,13.28,22.19l-20.35,14.55c0,0-9.15-17.61-6.95-24.39
						C280.66,218.47,286.4,211.36,292.38,213.18z"/>
					<path class="st21" d="M292.38,213.18c5.25,1.6,13.28,22.19,13.28,22.19l-20.35,14.55c0,0-9.15-17.61-6.95-24.39
						C280.66,218.47,286.4,211.36,292.38,213.18z"/>
				</g>
				<path class="st19" d="M320.7,232.05l-2.79-12.3l11.6,6.12c0,0,0.15,8.28-4.53,10.89L320.7,232.05z"/>
				<polygon class="st19" points="322.77,209.99 330.17,215.24 329.51,225.87 317.91,219.75 				"/>
			</g>
		</g>
	</g>
</g>
<g id="Chat">
	<g>
		<g>
			<path class="st27" d="M115.01,148.09h81c6.6,0,11.67,5.4,11.27,12l-2.24,36.67c-0.4,6.6-6.13,12-12.73,12h-9.38l3.83,12.59
				l-18.33-12.59h-57.12c-6.6,0-11.67-5.4-11.27-12l2.24-36.67C102.68,153.49,108.41,148.09,115.01,148.09z"/>
			<g>
				<path class="st3" d="M188.58,167.29h-68.51c-1.24,0-2.2-1.02-2.12-2.26l0,0c0.08-1.24,1.16-2.26,2.4-2.26h68.51
					c1.24,0,2.2,1.02,2.12,2.26l0,0C190.91,166.28,189.83,167.29,188.58,167.29z"/>
				<path class="st3" d="M148.04,180.68h-28.78c-1.24,0-2.2-1.02-2.12-2.26l0,0c0.08-1.24,1.16-2.26,2.4-2.26h28.78
					c1.24,0,2.2,1.02,2.12,2.26l0,0C150.36,179.66,149.28,180.68,148.04,180.68z"/>
				<path class="st3" d="M172.63,194.07h-54.19c-1.24,0-2.2-1.02-2.12-2.26l0,0c0.08-1.24,1.16-2.26,2.4-2.26h54.19
					c1.24,0,2.2,1.02,2.12,2.26l0,0C174.95,193.05,173.88,194.07,172.63,194.07z"/>
				<path class="st3" d="M169.11,180.68h-11.32c-1.24,0-2.2-1.02-2.12-2.26l0,0c0.08-1.24,1.16-2.26,2.4-2.26h11.32
					c1.24,0,2.2,1.02,2.12,2.26l0,0C171.43,179.66,170.35,180.68,169.11,180.68z"/>
			</g>
		</g>
		<g>
			<g>
				<g>
					<path class="st28" d="M225.79,82.19h-44.16c-5.14,0-9.59,4.2-9.91,9.34l-1.75,28.53c-0.31,5.14,3.63,9.34,8.77,9.34h7.3
						l-4.18,9.79l15.46-9.79h25.58c5.14,0,9.59-4.2,9.91-9.34l1.75-28.53C234.87,86.39,230.93,82.19,225.79,82.19z"/>
				</g>
				<g class="st29">
					<path class="st30" d="M225.79,82.19h-44.16c-5.14,0-9.59,4.2-9.91,9.34l-1.75,28.53c-0.31,5.14,3.63,9.34,8.77,9.34h7.3
						l-4.18,9.79l15.46-9.79h25.58c5.14,0,9.59-4.2,9.91-9.34l1.75-28.53C234.87,86.39,230.93,82.19,225.79,82.19z"/>
				</g>
			</g>
			<g>
				<path class="st3" d="M205.5,110.46c-0.27,1.29-1.49,2.21-2.8,2.21h-2.61c0.03-0.74,0.05-1.19,0.06-1.36
					c0.1-1.67,0.46-3.05,1.08-4.13c0.62-1.08,1.8-2.29,3.54-3.64c1.74-1.35,2.79-2.23,3.14-2.65c0.54-0.66,0.83-1.39,0.88-2.19
					c0.07-1.11-0.32-2.05-1.15-2.84c-0.84-0.79-2-1.18-3.5-1.18c-1.44,0-2.68,0.41-3.7,1.23c-0.59,0.48-1.09,1.1-1.5,1.87
					c-0.58,1.09-1.72,1.77-2.9,1.62l0,0c-1.83-0.23-2.81-2.23-1.84-3.87c0.57-0.97,1.33-1.85,2.29-2.66
					c2.01-1.69,4.57-2.53,7.67-2.53c3.27,0,5.81,0.85,7.64,2.56c1.83,1.71,2.67,3.69,2.53,5.96c-0.08,1.25-0.5,2.44-1.28,3.56
					c-0.78,1.12-2.39,2.64-4.82,4.57c-1.26,1-2.06,1.8-2.38,2.41C205.71,109.68,205.59,110.02,205.5,110.46z M199.79,117.64
					l0.02-0.31c0.09-1.48,1.37-2.69,2.85-2.69h0.32c1.48,0,2.61,1.2,2.52,2.69l-0.02,0.31c-0.09,1.48-1.37,2.69-2.85,2.69h-0.32
					C200.83,120.33,199.7,119.12,199.79,117.64z"/>
			</g>
		</g>
	</g>
</g>
</svg>
